<svg id="interface_1_" data-name="interface (1)" xmlns="http://www.w3.org/2000/svg" width="30" height="30" viewBox="0 0 30 30">
  <defs>
    <style>
      .cls-1 {
        fill: #8d8d8d;
      }
    </style>
  </defs>
  <g id="Group_4" data-name="Group 4">
    <g id="Group_3" data-name="Group 3">
      <path id="Path_12" data-name="Path 12" class="cls-1" d="M11.295,0H1.027A1.027,1.027,0,0,0,0,1.027V11.295a1.027,1.027,0,0,0,1.027,1.027H11.295a1.027,1.027,0,0,0,1.027-1.027V1.027A1.027,1.027,0,0,0,11.295,0Z"/>
      <path id="Path_13" data-name="Path 13" class="cls-1" d="M157.58,0H147.312a1.027,1.027,0,0,0-1.027,1.027V11.295a1.027,1.027,0,0,0,1.027,1.027H157.58a1.027,1.027,0,0,0,1.027-1.027V1.027A1.027,1.027,0,0,0,157.58,0Z" transform="translate(-128.606)"/>
      <path id="Path_14" data-name="Path 14" class="cls-1" d="M11.245,146.286H1.027A1.027,1.027,0,0,0,0,147.313v10.268a1.027,1.027,0,0,0,1.027,1.027H11.295a1.027,1.027,0,0,0,1.027-1.027V147.313A1.027,1.027,0,0,0,11.295,146.286Z" transform="translate(0 -128.607)"/>
      <path id="Path_15" data-name="Path 15" class="cls-1" d="M157.58,146.286H147.312a1.027,1.027,0,0,0-1.027,1.027v10.268a1.027,1.027,0,0,0,1.027,1.027H157.58a1.027,1.027,0,0,0,1.027-1.027V147.313A1.027,1.027,0,0,0,157.58,146.286Z" transform="translate(-128.606 -128.607)"/>
    </g>
  </g>
</svg>
